<svg width="21" height="24" viewBox="0 0 21 24" fill="none" xmlns="http://www.w3.org/2000/svg">
<path d="M15.5004 15.667C15.8592 17.3369 17.1635 18.6414 18.8335 19C17.1635 19.3586 15.8592 20.6631 15.5004 22.333C15.1417 20.663 13.8365 19.3586 12.1665 19C13.8365 18.6414 15.1417 17.337 15.5004 15.667ZM8.06001 5.83301C8.81957 9.37014 11.5825 12.1339 15.1196 12.8936C11.5826 13.6533 8.81962 16.4161 8.06001 19.9531C7.3004 16.4161 4.53743 13.6533 1.00044 12.8936C4.53755 12.1339 7.30045 9.37016 8.06001 5.83301ZM16.3335 5.66699C16.6025 6.9194 17.581 7.89804 18.8335 8.16699C17.5809 8.43597 16.6024 9.41442 16.3335 10.667C16.0645 9.41448 15.0859 8.43602 13.8335 8.16699C15.0859 7.89803 16.0644 6.91941 16.3335 5.66699Z" fill="black"/>
</svg>
