<svg width="179" height="33" viewBox="0 0 179 33" fill="none" xmlns="http://www.w3.org/2000/svg">
<g clip-path="url(#clip0_29_46)">
<path d="M32.6944 5.40892H41.4468V8.78973C41.4468 13.3741 37.742 17.0795 33.1571 17.0795H32.6938L32.6944 5.40892ZM20.2372 0.5H32.6944V32.4071H31.2127C22.1822 32.4071 20.3765 26.1088 20.3765 20.5055L20.2372 0.5ZM0 7.72433C0 13.4205 4.07522 15.5043 8.61369 16.1993H0V32.5H8.28973C16.6252 32.5 17.5978 28.7952 17.5978 25.2757C17.5978 20.9688 14.6338 17.959 10.0495 16.8007H17.5978V0.5H9.30807C0.972554 0.5 0 4.20477 0 7.72433Z" fill="black"/>
</g>
<g clip-path="url(#clip1_29_46)">
<path d="M58.9257 22.5329C58.0754 22.5329 57.2946 22.4515 56.5745 22.2797C55.8544 22.108 55.2297 21.864 54.6918 21.5477C54.1539 21.2314 53.7374 20.8337 53.4424 20.3637C53.1474 19.8939 53 19.3516 53 18.728C53 18.6648 53 18.6015 53 18.5383C53 18.475 53.0086 18.4208 53.026 18.3756H56.2535C56.2535 18.4027 56.2535 18.4389 56.2535 18.484C56.2535 18.5202 56.2535 18.5563 56.2535 18.5925C56.2709 18.963 56.401 19.2612 56.6526 19.4962C56.9042 19.7312 57.2426 19.8939 57.659 19.9932C58.0755 20.0927 58.5092 20.1469 58.969 20.1469C59.4028 20.1469 59.8193 20.1199 60.2271 20.0565C60.6348 19.9932 60.9732 19.8667 61.2508 19.686C61.5285 19.4962 61.6586 19.2521 61.6586 18.9449C61.6586 18.5563 61.4938 18.2762 61.1728 18.0864C60.8431 17.8966 60.4006 17.752 59.828 17.6435C59.2554 17.5351 58.6133 17.4086 57.9019 17.273C57.3119 17.1645 56.7394 17.029 56.2014 16.8572C55.6635 16.6855 55.169 16.4686 54.7438 16.1975C54.31 15.9264 53.9717 15.583 53.7201 15.1492C53.4685 14.7244 53.3383 14.1912 53.3383 13.5586C53.3383 12.8898 53.4771 12.3204 53.7634 11.8414C54.0497 11.3625 54.4489 10.9648 54.9694 10.6575C55.49 10.3503 56.106 10.1243 56.8087 9.97067C57.5115 9.82607 58.275 9.75378 59.0905 9.75378C59.8453 9.75378 60.5655 9.82607 61.2335 9.97067C61.9016 10.1153 62.4829 10.3322 62.9687 10.6214C63.4633 10.9106 63.845 11.2631 64.14 11.6969C64.4349 12.1307 64.5738 12.6187 64.5738 13.1609C64.5738 13.2513 64.5738 13.3417 64.5738 13.414C64.5738 13.4953 64.5651 13.5495 64.5478 13.6038H61.3203V13.4411C61.3203 13.1429 61.2162 12.9079 61.0166 12.7181C60.8171 12.5283 60.5394 12.3927 60.1924 12.2843C59.8454 12.1758 59.4463 12.1306 59.0038 12.1306C58.7782 12.1306 58.5266 12.1487 58.249 12.1758C57.9713 12.2029 57.6937 12.2572 57.4334 12.3385C57.1731 12.4198 56.9649 12.5283 56.8087 12.6639C56.6526 12.7994 56.5745 12.9802 56.5745 13.1971C56.5745 13.4772 56.7133 13.6942 56.9996 13.8568C57.2859 14.0195 57.659 14.146 58.1275 14.2364C58.596 14.3268 59.0992 14.4262 59.6545 14.5347C60.2792 14.6702 60.9038 14.8148 61.5285 14.9594C62.1531 15.104 62.7258 15.3028 63.2464 15.5558C63.7669 15.7999 64.1747 16.1614 64.4696 16.6223C64.7646 17.0832 64.9121 17.7068 64.9121 18.475C64.9121 19.2161 64.7646 19.8486 64.4783 20.3637C64.192 20.879 63.7756 21.3037 63.2464 21.62C62.7084 21.9364 62.0837 22.1622 61.3549 22.3069C60.6262 22.4515 59.8019 22.5329 58.9257 22.5329Z" fill="black"/>
<path d="M71.3588 22.5324C69.962 22.5324 68.8862 22.1619 68.114 21.4209C67.3506 20.6797 66.9687 19.5139 66.9687 17.9143V10.0516H70.2223V17.3629C70.2223 17.8148 70.2744 18.1854 70.3784 18.4926C70.4826 18.7909 70.6387 19.0349 70.8469 19.2246C71.0551 19.4145 71.3067 19.55 71.593 19.6314C71.8794 19.7127 72.209 19.7579 72.5821 19.7579C73.12 19.7579 73.6059 19.6314 74.0397 19.3874C74.4735 19.1434 74.8292 18.7909 75.0981 18.3571C75.3672 17.9143 75.4972 17.4172 75.4972 16.8568V10.0607H78.7681V22.2704H76.0959L75.8529 20.4176H75.6968C75.3411 20.8966 74.942 21.2942 74.4908 21.6106C74.0484 21.9269 73.5538 22.1619 73.0072 22.3155C72.4606 22.4691 71.9228 22.5324 71.3588 22.5324Z" fill="black"/>
<path d="M81.4919 26.4998V10.0425H84.1466L84.4329 11.8048H84.5892C85.049 11.0637 85.6303 10.5396 86.3418 10.2233C87.0445 9.91598 87.8166 9.76233 88.6495 9.76233C89.734 9.76233 90.671 9.98827 91.4693 10.4401C92.2674 10.892 92.8747 11.5879 93.3085 12.5278C93.7423 13.4677 93.9505 14.6787 93.9505 16.1519C93.9505 17.5888 93.7337 18.7818 93.2912 19.7216C92.8488 20.6616 92.2501 21.3665 91.4779 21.8364C90.7057 22.2974 89.8034 22.5324 88.7623 22.5324C88.2417 22.5324 87.7386 22.469 87.2613 22.3425C86.7756 22.216 86.333 22.0263 85.9339 21.7731C85.5348 21.5201 85.1877 21.2038 84.9102 20.8333H84.78V26.4998H81.4919ZM87.7039 19.7669C88.3719 19.7669 88.9184 19.6404 89.3522 19.3873C89.786 19.1343 90.0985 18.7456 90.3067 18.2305C90.5149 17.7153 90.6189 17.1008 90.6189 16.3868V15.9259C90.6189 15.1848 90.5149 14.5612 90.3067 14.0461C90.0985 13.54 89.7774 13.1514 89.3522 12.8983C88.9184 12.6453 88.3632 12.5188 87.6778 12.5188C87.0357 12.5188 86.4979 12.6543 86.0641 12.9345C85.6217 13.2147 85.2919 13.6123 85.0577 14.1275C84.8234 14.6426 84.7106 15.2571 84.7106 15.9711V16.2964C84.7106 16.8206 84.78 17.3087 84.9102 17.7425C85.0403 18.1853 85.2312 18.5558 85.4828 18.8541C85.7345 19.1523 86.0294 19.3873 86.3937 19.5409C86.7668 19.6855 87.2006 19.7669 87.7039 19.7669Z" fill="black"/>
<path d="M102.392 22.5324C100.978 22.5324 99.7808 22.3065 98.7918 21.8456C97.8027 21.3846 97.0479 20.6887 96.5274 19.7489C96.0068 18.809 95.7465 17.607 95.7465 16.152C95.7465 14.6969 96.0068 13.4949 96.5274 12.555C97.0479 11.6151 97.7941 10.9102 98.7657 10.4583C99.7375 10.0065 100.917 9.77148 102.297 9.77148C103.65 9.77148 104.796 9.99742 105.741 10.4493C106.687 10.9012 107.398 11.579 107.876 12.5008C108.361 13.4226 108.596 14.5794 108.596 15.9712V16.9201H99.1041C99.1302 17.6341 99.2776 18.2215 99.5292 18.6915C99.7808 19.1615 100.145 19.5049 100.631 19.7217C101.117 19.9386 101.716 20.0471 102.427 20.0471C102.783 20.0471 103.121 20.0019 103.451 19.9206C103.781 19.8392 104.075 19.7036 104.344 19.5229C104.613 19.3421 104.839 19.1252 105.012 18.8632C105.195 18.6011 105.29 18.3029 105.299 17.9595H108.57C108.57 18.6734 108.413 19.3151 108.11 19.8845C107.806 20.4539 107.39 20.9327 106.852 21.3214C106.314 21.71 105.672 22.0082 104.917 22.2161C104.171 22.424 103.321 22.5324 102.392 22.5324ZM99.1562 14.8054H105.169C105.169 14.3716 105.099 13.992 104.96 13.6666C104.822 13.3413 104.622 13.0701 104.37 12.8532C104.119 12.6363 103.824 12.4827 103.477 12.3743C103.139 12.2749 102.757 12.2206 102.34 12.2206C101.698 12.2206 101.152 12.32 100.7 12.5098C100.249 12.6996 99.8936 12.9979 99.642 13.3774C99.3991 13.7751 99.2342 14.245 99.1562 14.8054Z" fill="black"/>
<path d="M110.913 22.2526V10.043H113.585L113.854 12.0403H114.01C114.158 11.6246 114.375 11.2359 114.661 10.8835C114.938 10.531 115.286 10.2509 115.693 10.052C116.101 9.85321 116.57 9.75378 117.082 9.75378C117.35 9.75378 117.593 9.78091 117.819 9.8261C118.045 9.87128 118.235 9.9255 118.4 9.98876V12.9621H117.107C116.604 12.9621 116.171 13.0434 115.806 13.2061C115.442 13.3688 115.138 13.6038 114.895 13.902C114.652 14.2003 114.47 14.5527 114.357 14.9594C114.244 15.3661 114.192 15.818 114.192 16.3241V22.2617H110.913V22.2526Z" fill="black"/>
<path d="M124.932 22.5325C124.117 22.5325 123.449 22.397 122.928 22.1349C122.408 21.8728 122.026 21.4841 121.783 20.96C121.54 20.4359 121.419 19.7941 121.419 19.026V12.6003H119.614V10.0517H121.549L122.174 6.5H124.69V10.0517H127.318V12.6003H124.69V18.538C124.69 18.9989 124.785 19.3514 124.967 19.5954C125.149 19.8394 125.505 19.9569 126.026 19.9569H127.318V22.162C127.127 22.2253 126.885 22.2795 126.607 22.3336C126.321 22.3879 126.034 22.4331 125.739 22.4693C125.436 22.5054 125.167 22.5325 124.932 22.5325Z" fill="black"/>
<path d="M135.413 22.5324C133.999 22.5324 132.802 22.3065 131.813 21.8456C130.824 21.3846 130.069 20.6887 129.548 19.7489C129.028 18.809 128.768 17.607 128.768 16.152C128.768 14.6969 129.028 13.4949 129.548 12.555C130.069 11.6151 130.815 10.9102 131.787 10.4583C132.759 10.0065 133.938 9.77148 135.318 9.77148C136.671 9.77148 137.817 9.99742 138.762 10.4493C139.708 10.9012 140.42 11.579 140.897 12.5008C141.383 13.4226 141.617 14.5794 141.617 15.9712V16.9201H132.134C132.16 17.6341 132.307 18.2215 132.559 18.6915C132.811 19.1615 133.175 19.5049 133.661 19.7217C134.147 19.9386 134.745 20.0471 135.457 20.0471C135.812 20.0471 136.151 20.0019 136.481 19.9206C136.81 19.8392 137.105 19.7036 137.374 19.5229C137.643 19.3421 137.869 19.1252 138.042 18.8632C138.224 18.6011 138.32 18.3029 138.329 17.9595H141.599C141.599 18.6734 141.443 19.3151 141.14 19.8845C140.836 20.4539 140.419 20.9327 139.882 21.3214C139.344 21.71 138.702 22.0082 137.947 22.2161C137.192 22.424 136.35 22.5324 135.413 22.5324ZM132.177 14.8054H138.19C138.19 14.3716 138.12 13.992 137.981 13.6666C137.843 13.3413 137.643 13.0701 137.392 12.8532C137.14 12.6363 136.845 12.4827 136.498 12.3743C136.16 12.2749 135.778 12.2206 135.361 12.2206C134.719 12.2206 134.173 12.32 133.722 12.5098C133.27 12.6996 132.915 12.9979 132.663 13.3774C132.42 13.7751 132.255 14.245 132.177 14.8054Z" fill="black"/>
<path d="M147.69 22.5329C147.169 22.5329 146.649 22.4786 146.128 22.3701C145.608 22.2617 145.148 22.0809 144.74 21.8369C144.332 21.5929 144.002 21.2405 143.751 20.7795C143.499 20.3276 143.369 19.7402 143.369 19.0262C143.369 18.1135 143.577 17.3724 143.994 16.8121C144.41 16.2517 145.009 15.827 145.798 15.5378C146.588 15.2486 147.516 15.0588 148.592 14.9684C149.668 14.8781 150.857 14.8329 152.149 14.8329V14.1099C152.149 13.6941 152.063 13.3507 151.889 13.0796C151.715 12.8084 151.455 12.5916 151.091 12.4379C150.726 12.2843 150.241 12.203 149.633 12.203C149.095 12.203 148.644 12.2572 148.262 12.3747C147.881 12.4922 147.594 12.6458 147.395 12.8266C147.195 13.0073 147.091 13.2332 147.091 13.4772V13.7574H143.881C143.864 13.667 143.855 13.5857 143.846 13.5224C143.838 13.4591 143.838 13.3869 143.838 13.2875C143.838 12.5735 144.072 11.9499 144.532 11.4167C144.992 10.8835 145.668 10.4768 146.545 10.1876C147.421 9.89836 148.488 9.75378 149.72 9.75378C150.952 9.75378 151.984 9.88936 152.826 10.1695C153.668 10.4497 154.31 10.8835 154.752 11.4709C155.195 12.0584 155.42 12.8085 155.42 13.7213V19.0805C155.42 19.3606 155.489 19.5685 155.628 19.7221C155.767 19.8667 155.941 19.9391 156.149 19.9391H157.086V22.1171C156.921 22.1894 156.661 22.2707 156.305 22.3611C155.949 22.4425 155.533 22.4876 155.056 22.4876C154.509 22.4876 154.049 22.4154 153.694 22.2707C153.338 22.1261 153.06 21.9272 152.861 21.6652C152.661 21.4031 152.514 21.1139 152.427 20.7705H152.245C151.932 21.1139 151.551 21.4121 151.099 21.6832C150.648 21.9544 150.136 22.1622 149.564 22.2979C149 22.4605 148.375 22.5329 147.69 22.5329ZM148.67 20.0204C149.104 20.0204 149.52 19.9661 149.928 19.8486C150.336 19.7311 150.7 19.5685 151.03 19.3606C151.36 19.1527 151.62 18.8907 151.828 18.5744C152.036 18.2581 152.141 17.9146 152.141 17.5441V16.8663C150.978 16.8663 149.998 16.9205 149.173 17.038C148.358 17.1555 147.725 17.3453 147.291 17.6164C146.857 17.8875 146.631 18.2581 146.631 18.7461C146.631 19.0534 146.718 19.3065 146.9 19.4872C147.083 19.677 147.325 19.8125 147.638 19.8939C147.959 19.9842 148.297 20.0204 148.67 20.0204Z" fill="black"/>
<path d="M158.622 22.2522V10.0426H161.294L161.563 11.8772H161.72C162.032 11.3982 162.405 11.0006 162.848 10.6843C163.29 10.368 163.758 10.133 164.262 9.98837C164.765 9.84377 165.285 9.77148 165.823 9.77148C166.726 9.77148 167.498 9.93415 168.114 10.2685C168.73 10.6029 169.216 11.1362 169.537 11.8772H169.693C170.023 11.3982 170.404 11.0006 170.838 10.6843C171.272 10.368 171.758 10.133 172.287 9.98837C172.816 9.84377 173.354 9.77148 173.901 9.77148C174.777 9.77148 175.524 9.92512 176.139 10.2324C176.755 10.5397 177.232 11.0367 177.579 11.7145C177.918 12.3923 178.092 13.2599 178.092 14.3173V22.2522H174.794V14.8957C174.794 14.4619 174.742 14.0914 174.646 13.7841C174.552 13.4769 174.412 13.2238 174.24 13.0431C174.057 12.8533 173.832 12.7267 173.563 12.6454C173.284 12.5641 172.99 12.5279 172.686 12.5279C172.2 12.5279 171.749 12.6454 171.341 12.8894C170.933 13.1334 170.604 13.4678 170.361 13.9107C170.118 14.3535 169.997 14.8505 169.997 15.4109V22.2522H166.743V14.8957C166.743 14.4619 166.691 14.0914 166.587 13.7841C166.483 13.4769 166.335 13.2238 166.153 13.0431C165.971 12.8533 165.745 12.7267 165.485 12.6454C165.225 12.5641 164.921 12.5279 164.583 12.5279C164.088 12.5279 163.646 12.6454 163.238 12.8894C162.83 13.1334 162.509 13.4678 162.266 13.9107C162.032 14.3535 161.91 14.8505 161.91 15.4109V22.2522H158.622Z" fill="black"/>
</g>
<defs>
<clipPath id="clip0_29_46">
<rect width="42" height="32" fill="white" transform="translate(0 0.5)"/>
</clipPath>
<clipPath id="clip1_29_46">
<rect width="126" height="20" fill="white" transform="translate(53 6.5)"/>
</clipPath>
</defs>
</svg>
