<svg width="177" height="39" viewBox="0 0 177 39" fill="none" xmlns="http://www.w3.org/2000/svg">
<g clip-path="url(#clip0_29_28)">
<path d="M30.225 26.6645C29.1077 28.6088 27.0403 29.8043 24.7997 29.8043H21.1763V17.5863L15.9466 26.6674C14.8291 28.6115 12.7618 29.8071 10.5213 29.8071H6.92302V11.7761H14.1614V23.9634L21.1763 11.7817V11.7761H28.412V24.0138L36.0136 10.8068C36.3209 10.2705 36.3153 9.60571 35.9829 9.08336C32.4769 3.54699 26.2608 -0.103896 19.1984 0.00225467C8.42881 0.169854 -0.0555941 8.83754 0.000274327 19.6059C0.0561427 30.3266 8.76685 39 19.5001 39C30.2334 39 39 30.2707 39 19.5026C39 17.7678 38.771 16.0863 38.3436 14.4829C38.215 13.9968 37.5669 13.9075 37.3154 14.3404L30.2223 26.6618L30.225 26.6645Z" fill="black"/>
</g>
<g clip-path="url(#clip1_29_28)">
<path d="M145.227 13H139.037C136.659 13 134.733 15.0263 134.733 17.528V21.4719C134.733 23.9737 136.659 26 139.037 26H145.373V25.9932C147.683 25.9117 149.532 23.9216 149.532 21.4719V17.528C149.532 15.0263 147.606 13 145.227 13ZM144.559 23.8401H139.705V15.1599H144.559V23.8401ZM76.4765 13H70.2875C67.9088 13 65.9822 15.0263 65.9822 17.528V21.4719C65.9822 23.9737 67.9088 26 70.2875 26H76.6229V25.9932C78.9328 25.9117 80.7819 23.9216 80.7819 21.4719V17.528C80.7819 15.0263 78.8553 13 76.4765 13ZM75.8092 23.8401H70.9549V15.1599H75.8092V23.8401ZM111.115 15.264H111.118L107.522 21.8115V13H105.032C103.493 13 102.072 13.8626 101.303 15.264L96.0939 24.7525L93.8013 20.5777C95.4481 20.5573 96.7785 19.1468 96.7785 17.4103V16.1696C96.7785 14.4195 95.4288 13 93.7647 13H81.9788V26H86.9515V20.5799H88.0623L91.0373 26H97.7063L102.55 17.1748V26H107.522V25.9955L112.345 17.2111V26H117.317V13H114.844C113.305 13 111.884 13.8626 111.115 15.264ZM91.8058 18.4201H86.9515V15.1599H91.8058V18.4201ZM128.532 13H133.505V26H128.532V20.5799H123.678V26H118.706V13H123.678V18.4201H128.532V13ZM155.732 23.8401H162.151V26H155.064C152.686 26 150.759 23.9737 150.759 21.4719V13H155.732V23.8401ZM168.402 15.1599V18.4201H175.207V20.5799H168.402V23.8401H177V26H163.43V13H177V15.1599L168.402 15.1599ZM66.91 13L61.0159 23.736C60.2475 25.1374 58.8267 26 57.2875 26H54.7969V17.1884L51.2019 23.736C50.4334 25.1374 49.0126 26 47.4734 26H45V13H49.9749V21.7889L54.7969 13.0045V13H59.7695V21.8252L64.6131 13H66.91Z" fill="black"/>
</g>
<defs>
<clipPath id="clip0_29_28">
<rect width="39" height="39" fill="white"/>
</clipPath>
<clipPath id="clip1_29_28">
<rect width="132" height="13" fill="white" transform="translate(45 13)"/>
</clipPath>
</defs>
</svg>
